<svg xmlns="http://www.w3.org/2000/svg" viewBox="0 0 163 46"><style>.st0{fill:#45b97e}.st1{fill:#fff}</style><g class="effective-line"><path class="st0" d="M3.1 39.2H23v4.7H3.1z"/></g><g class="effective-text"><path class="st1" d="M56.6 21.2c.4-4 2.3-6.5 5.1-6.5 2.9 0 4.6 2.7 4.9 6.5h-10zm5-10.7c-5.8 0-10.1 5.1-10.1 12.2v.3c0 7.4 4.7 12 10.8 12 3.5 0 6.1-1.4 8.3-3.6L68 28.2c-1.6 1.5-3.2 2.5-5.4 2.5-3.1 0-5.5-2.1-6-6.1h14.8v-1.7c0-7.1-3.4-12.4-9.8-12.4m23.7 20c-3.4 0-5.8-3.1-5.8-7.7v-.2c0-4.5 2.4-7.6 5.7-7.6 2.1 0 3.5 1.1 4.8 2.4l2.8-3.7c-2-2-4.2-3.2-7.6-3.2-6.2 0-10.8 5.1-10.8 12.1v.4c0 7 4.5 12 10.6 12 3.6 0 6-1.5 7.8-3.6l-2.7-3.3c-1.4 1.4-2.8 2.4-4.8 2.4m59.8-9.3c.4-4 2.3-6.5 5.1-6.5 2.9 0 4.6 2.7 4.9 6.5h-10zm14.8 1.7c0-7.1-3.4-12.4-9.8-12.4-5.8 0-10.1 5.1-10.1 12.2v.3c0 7.4 4.7 12 10.8 12 3.5 0 6.1-1.4 8.3-3.6l-2.6-3.1c-1.6 1.5-3.2 2.5-5.4 2.5-3.1 0-5.5-2.1-6-6.1h14.8v-1.8M8.1 21.2h13v-4.7h-13V8h14.6V3.4H3.1v31.1h19.8v-4.7H8.1zm93.1-16.4h-5v24.1c0 4.6 2.6 6.1 6.1 6.1 1.7 0 3-.4 4.2-1v-4.1c-.8.4-1.7.7-2.7.7-1.6 0-2.5-.8-2.5-2.6V15.2h4.4l2.8-4.2h-7.2V4.8zm9.2-2.1h5v4.2h-5zm0 8.4h5v23.5h-5zm-57.9 0l-2.8 4.2h-4.3v19.3h-5.1V15.2h-8.5v19.3h-5.1V9.2c0-2.4.6-4.2 1.8-5.4 1.1-1.1 2.8-1.7 4.9-1.7 1.6.1 2.6.2 3.6.5v4.2c-.8-.2-1.6-.4-2.4-.4-1.8 0-2.8 1-2.8 3.2v1.3h8.6V9.2c0-2.4.6-4.2 1.8-5.4 1.1-1.1 2.8-1.7 4.9-1.7 1.5 0 2.6.2 3.6.5v4.2c-.8-.2-1.6-.4-2.4-.4-1.8 0-2.8 1-2.8 3.2v1.3h7zm87 0l-8.1 23.4h-4.8l-8.1-23.4h5.3l5.2 17 5.3-17z"/></g></svg>