<?xml version="1.0" encoding="utf-8"?>
<!-- Generator: Adobe Illustrator 21.0.0, SVG Export Plug-In . SVG Version: 6.00 Build 0)  -->
<svg version="1.1" xmlns="http://www.w3.org/2000/svg" xmlns:xlink="http://www.w3.org/1999/xlink" x="0px" y="0px"
	 viewBox="0 0 163 46" style="enable-background:new 0 0 163 46;" xml:space="preserve">
<style type="text/css">
	.st0{fill:#45B97E;}
	.st1{fill:#FFFFFF;}
</style>
<g class="effective-line">
	<rect x="3.1" y="39.2" class="st0" width="19.9" height="4.7"/>
</g>
<g class="effective-text">
	<path class="st1" d="M56.6,21.2c0.4-4,2.3-6.5,5.1-6.5c2.9,0,4.6,2.7,4.9,6.5H56.6z M61.6,10.5c-5.8,0-10.1,5.1-10.1,12.2V23
		c0,7.4,4.7,12,10.8,12c3.5,0,6.1-1.4,8.3-3.6L68,28.2c-1.6,1.5-3.2,2.5-5.4,2.5c-3.1,0-5.5-2.1-6-6.1h14.8c0-0.7,0-1.4,0-1.7
		C71.4,15.8,68,10.5,61.6,10.5"/>
	<path class="st1" d="M85.3,30.5c-3.4,0-5.8-3.1-5.8-7.7v-0.2c0-4.5,2.4-7.6,5.7-7.6c2.1,0,3.5,1.1,4.8,2.4l2.8-3.7
		c-2-2-4.2-3.2-7.6-3.2c-6.2,0-10.8,5.1-10.8,12.1V23c0,7,4.5,12,10.6,12c3.6,0,6-1.5,7.8-3.6l-2.7-3.3
		C88.7,29.5,87.3,30.5,85.3,30.5"/>
	<path class="st1" d="M145.1,21.2c0.4-4,2.3-6.5,5.1-6.5c2.9,0,4.6,2.7,4.9,6.5H145.1z M159.9,22.9c0-7.1-3.4-12.4-9.8-12.4
		c-5.8,0-10.1,5.1-10.1,12.2V23c0,7.4,4.7,12,10.8,12c3.5,0,6.1-1.4,8.3-3.6l-2.6-3.1c-1.6,1.5-3.2,2.5-5.4,2.5
		c-3.1,0-5.5-2.1-6-6.1h14.8C159.9,23.9,159.9,23.2,159.9,22.9"/>
	<polygon class="st1" points="8.1,21.2 21.1,21.2 21.1,16.5 8.1,16.5 8.1,8 22.7,8 22.7,3.4 3.1,3.4 3.1,34.5 22.9,34.5 22.9,29.8 
		8.1,29.8 	"/>
	<path class="st1" d="M101.2,4.8h-5v24.1c0,4.6,2.6,6.1,6.1,6.1c1.7,0,3-0.4,4.2-1v-4.1c-0.8,0.4-1.7,0.7-2.7,0.7
		c-1.6,0-2.5-0.8-2.5-2.6V15.2h4.4l2.8-4.2h-7.2V4.8z"/>
	<rect x="110.4" y="2.7" class="st1" width="5" height="4.2"/>
	<rect x="110.4" y="11.1" class="st1" width="5" height="23.5"/>
	<path class="st1" d="M52.5,11.1l-2.8,4.2h-4.3v19.3h-5.1V15.2h-8.5v19.3h-5.1V9.2c0-2.4,0.6-4.2,1.8-5.4c1.1-1.1,2.8-1.7,4.9-1.7
		C35,2.2,36,2.3,37,2.6v4.2c-0.8-0.2-1.6-0.4-2.4-0.4c-1.8,0-2.8,1-2.8,3.2v1.3h8.6V9.2c0-2.4,0.6-4.2,1.8-5.4
		c1.1-1.1,2.8-1.7,4.9-1.7c1.5,0,2.6,0.2,3.6,0.5v4.2c-0.8-0.2-1.6-0.4-2.4-0.4c-1.8,0-2.8,1-2.8,3.2v1.3H52.5z"/>
	<polygon class="st1" points="139.5,11.1 131.4,34.5 126.6,34.5 118.5,11.1 123.8,11.1 129,28.1 134.3,11.1 	"/>
</g>
</svg>
